<mxfile host="app.diagrams.net" agent="Mozilla/5.0 (Windows NT 10.0; Win64; x64) AppleWebKit/537.36 (KHTML, like Gecko) Chrome/131.0.0.0 Safari/537.36" version="25.0.3">
  <diagram name="Page-1" id="BKZXOh2dsImFxUshEgJ3">
    <mxGraphModel dx="1434" dy="746" grid="1" gridSize="10" guides="1" tooltips="1" connect="1" arrows="1" fold="1" page="1" pageScale="1" pageWidth="850" pageHeight="1100" math="0" shadow="0">
      <root>
        <mxCell id="0" />
        <mxCell id="1" parent="0" />
        <mxCell id="RJCtjfo26XfE6H9p0rbl-1" style="edgeStyle=orthogonalEdgeStyle;rounded=0;orthogonalLoop=1;jettySize=auto;html=1;entryX=0.5;entryY=0;entryDx=0;entryDy=0;" edge="1" parent="1" source="RJCtjfo26XfE6H9p0rbl-2" target="RJCtjfo26XfE6H9p0rbl-4">
          <mxGeometry relative="1" as="geometry" />
        </mxCell>
        <mxCell id="RJCtjfo26XfE6H9p0rbl-2" value="&lt;font style=&quot;font-size: 24px;&quot;&gt;start&lt;/font&gt;" style="strokeWidth=2;html=1;shape=mxgraph.flowchart.start_1;whiteSpace=wrap;" vertex="1" parent="1">
          <mxGeometry x="375" y="40" width="100" height="60" as="geometry" />
        </mxCell>
        <mxCell id="RJCtjfo26XfE6H9p0rbl-3" style="edgeStyle=orthogonalEdgeStyle;rounded=0;orthogonalLoop=1;jettySize=auto;html=1;entryX=0.5;entryY=0;entryDx=0;entryDy=0;" edge="1" parent="1" source="RJCtjfo26XfE6H9p0rbl-4" target="RJCtjfo26XfE6H9p0rbl-7">
          <mxGeometry relative="1" as="geometry" />
        </mxCell>
        <mxCell id="RJCtjfo26XfE6H9p0rbl-4" value="input n" style="shape=parallelogram;perimeter=parallelogramPerimeter;whiteSpace=wrap;html=1;fixedSize=1;" vertex="1" parent="1">
          <mxGeometry x="364" y="140" width="122" height="30" as="geometry" />
        </mxCell>
        <mxCell id="RJCtjfo26XfE6H9p0rbl-5" value="&lt;font style=&quot;font-size: 24px;&quot;&gt;end&lt;/font&gt;" style="strokeWidth=2;html=1;shape=mxgraph.flowchart.start_1;whiteSpace=wrap;" vertex="1" parent="1">
          <mxGeometry x="375" y="570" width="100" height="60" as="geometry" />
        </mxCell>
        <mxCell id="RJCtjfo26XfE6H9p0rbl-7" value="output&lt;div&gt;&quot;output&quot;&lt;/div&gt;" style="shape=parallelogram;perimeter=parallelogramPerimeter;whiteSpace=wrap;html=1;fixedSize=1;" vertex="1" parent="1">
          <mxGeometry x="364" y="220" width="122" height="30" as="geometry" />
        </mxCell>
        <mxCell id="RJCtjfo26XfE6H9p0rbl-9" value="while ( i &amp;gt; 1)" style="rhombus;whiteSpace=wrap;html=1;" vertex="1" parent="1">
          <mxGeometry x="354" y="450" width="142" height="70" as="geometry" />
        </mxCell>
        <mxCell id="RJCtjfo26XfE6H9p0rbl-10" style="edgeStyle=orthogonalEdgeStyle;rounded=0;orthogonalLoop=1;jettySize=auto;html=1;entryX=0.5;entryY=0;entryDx=0;entryDy=0;" edge="1" parent="1" source="RJCtjfo26XfE6H9p0rbl-11" target="RJCtjfo26XfE6H9p0rbl-13">
          <mxGeometry relative="1" as="geometry" />
        </mxCell>
        <mxCell id="RJCtjfo26XfE6H9p0rbl-11" value="if (is_prime(i)" style="rhombus;whiteSpace=wrap;html=1;" vertex="1" parent="1">
          <mxGeometry x="580" y="355" width="142" height="70" as="geometry" />
        </mxCell>
        <mxCell id="RJCtjfo26XfE6H9p0rbl-12" style="edgeStyle=orthogonalEdgeStyle;rounded=0;orthogonalLoop=1;jettySize=auto;html=1;entryX=0.5;entryY=0;entryDx=0;entryDy=0;" edge="1" parent="1" source="RJCtjfo26XfE6H9p0rbl-13" target="RJCtjfo26XfE6H9p0rbl-36">
          <mxGeometry relative="1" as="geometry" />
        </mxCell>
        <mxCell id="RJCtjfo26XfE6H9p0rbl-13" value="output i" style="shape=parallelogram;perimeter=parallelogramPerimeter;whiteSpace=wrap;html=1;fixedSize=1;" vertex="1" parent="1">
          <mxGeometry x="590" y="470" width="122" height="30" as="geometry" />
        </mxCell>
        <mxCell id="RJCtjfo26XfE6H9p0rbl-14" style="edgeStyle=orthogonalEdgeStyle;rounded=0;orthogonalLoop=1;jettySize=auto;html=1;entryX=0.5;entryY=0;entryDx=0;entryDy=0;entryPerimeter=0;" edge="1" parent="1" source="RJCtjfo26XfE6H9p0rbl-9" target="RJCtjfo26XfE6H9p0rbl-5">
          <mxGeometry relative="1" as="geometry" />
        </mxCell>
        <mxCell id="RJCtjfo26XfE6H9p0rbl-15" style="edgeStyle=orthogonalEdgeStyle;rounded=0;orthogonalLoop=1;jettySize=auto;html=1;entryX=0.5;entryY=0;entryDx=0;entryDy=0;" edge="1" parent="1" source="RJCtjfo26XfE6H9p0rbl-16" target="RJCtjfo26XfE6H9p0rbl-18">
          <mxGeometry relative="1" as="geometry" />
        </mxCell>
        <mxCell id="RJCtjfo26XfE6H9p0rbl-16" value="&lt;font style=&quot;font-size: 16px;&quot;&gt;isprime(num)&lt;/font&gt;" style="strokeWidth=2;html=1;shape=mxgraph.flowchart.start_1;whiteSpace=wrap;" vertex="1" parent="1">
          <mxGeometry x="919" y="20" width="140" height="60" as="geometry" />
        </mxCell>
        <mxCell id="RJCtjfo26XfE6H9p0rbl-17" style="edgeStyle=orthogonalEdgeStyle;rounded=0;orthogonalLoop=1;jettySize=auto;html=1;entryX=0.5;entryY=0;entryDx=0;entryDy=0;" edge="1" parent="1" source="RJCtjfo26XfE6H9p0rbl-18" target="RJCtjfo26XfE6H9p0rbl-23">
          <mxGeometry relative="1" as="geometry" />
        </mxCell>
        <mxCell id="RJCtjfo26XfE6H9p0rbl-18" value="if (num &amp;lt;= 1)" style="rhombus;whiteSpace=wrap;html=1;" vertex="1" parent="1">
          <mxGeometry x="919" y="120" width="142" height="70" as="geometry" />
        </mxCell>
        <mxCell id="RJCtjfo26XfE6H9p0rbl-19" value="&lt;font style=&quot;font-size: 16px;&quot;&gt;return 0&lt;/font&gt;" style="strokeWidth=2;html=1;shape=mxgraph.flowchart.start_1;whiteSpace=wrap;" vertex="1" parent="1">
          <mxGeometry x="750" y="250" width="100" height="60" as="geometry" />
        </mxCell>
        <mxCell id="RJCtjfo26XfE6H9p0rbl-20" style="edgeStyle=orthogonalEdgeStyle;rounded=0;orthogonalLoop=1;jettySize=auto;html=1;entryX=0.5;entryY=0;entryDx=0;entryDy=0;entryPerimeter=0;" edge="1" parent="1" source="RJCtjfo26XfE6H9p0rbl-18" target="RJCtjfo26XfE6H9p0rbl-19">
          <mxGeometry relative="1" as="geometry" />
        </mxCell>
        <mxCell id="RJCtjfo26XfE6H9p0rbl-21" style="edgeStyle=orthogonalEdgeStyle;rounded=0;orthogonalLoop=1;jettySize=auto;html=1;entryX=0.5;entryY=0;entryDx=0;entryDy=0;" edge="1" parent="1" source="RJCtjfo26XfE6H9p0rbl-23" target="RJCtjfo26XfE6H9p0rbl-24">
          <mxGeometry relative="1" as="geometry" />
        </mxCell>
        <mxCell id="RJCtjfo26XfE6H9p0rbl-22" style="edgeStyle=orthogonalEdgeStyle;rounded=0;orthogonalLoop=1;jettySize=auto;html=1;entryX=0.5;entryY=0;entryDx=0;entryDy=0;entryPerimeter=0;" edge="1" parent="1" source="RJCtjfo26XfE6H9p0rbl-23" target="RJCtjfo26XfE6H9p0rbl-28">
          <mxGeometry relative="1" as="geometry">
            <mxPoint x="989.9999999999998" y="520" as="targetPoint" />
          </mxGeometry>
        </mxCell>
        <mxCell id="RJCtjfo26XfE6H9p0rbl-23" value="for ( i = 2, i * i &amp;lt;= num, i++" style="rhombus;whiteSpace=wrap;html=1;" vertex="1" parent="1">
          <mxGeometry x="890" y="220" width="200" height="110" as="geometry" />
        </mxCell>
        <mxCell id="RJCtjfo26XfE6H9p0rbl-24" value="if (num % i == 0" style="rhombus;whiteSpace=wrap;html=1;" vertex="1" parent="1">
          <mxGeometry x="1110" y="310" width="120" height="70" as="geometry" />
        </mxCell>
        <mxCell id="RJCtjfo26XfE6H9p0rbl-25" style="edgeStyle=orthogonalEdgeStyle;rounded=0;orthogonalLoop=1;jettySize=auto;html=1;entryX=1;entryY=1;entryDx=0;entryDy=0;" edge="1" parent="1" source="RJCtjfo26XfE6H9p0rbl-26" target="RJCtjfo26XfE6H9p0rbl-23">
          <mxGeometry relative="1" as="geometry" />
        </mxCell>
        <mxCell id="RJCtjfo26XfE6H9p0rbl-26" value="&lt;font style=&quot;font-size: 16px;&quot;&gt;return 0&lt;/font&gt;" style="strokeWidth=2;html=1;shape=mxgraph.flowchart.start_1;whiteSpace=wrap;" vertex="1" parent="1">
          <mxGeometry x="1120" y="420" width="100" height="60" as="geometry" />
        </mxCell>
        <mxCell id="RJCtjfo26XfE6H9p0rbl-27" style="edgeStyle=orthogonalEdgeStyle;rounded=0;orthogonalLoop=1;jettySize=auto;html=1;entryX=0.5;entryY=0;entryDx=0;entryDy=0;entryPerimeter=0;" edge="1" parent="1" source="RJCtjfo26XfE6H9p0rbl-24" target="RJCtjfo26XfE6H9p0rbl-26">
          <mxGeometry relative="1" as="geometry" />
        </mxCell>
        <mxCell id="RJCtjfo26XfE6H9p0rbl-28" value="&lt;font style=&quot;font-size: 16px;&quot;&gt;return 1&lt;/font&gt;" style="strokeWidth=2;html=1;shape=mxgraph.flowchart.start_1;whiteSpace=wrap;" vertex="1" parent="1">
          <mxGeometry x="940" y="530" width="100" height="60" as="geometry" />
        </mxCell>
        <mxCell id="RJCtjfo26XfE6H9p0rbl-32" style="edgeStyle=orthogonalEdgeStyle;rounded=0;orthogonalLoop=1;jettySize=auto;html=1;" edge="1" parent="1" source="RJCtjfo26XfE6H9p0rbl-29" target="RJCtjfo26XfE6H9p0rbl-11">
          <mxGeometry relative="1" as="geometry" />
        </mxCell>
        <mxCell id="RJCtjfo26XfE6H9p0rbl-29" value="" style="strokeWidth=2;html=1;shape=mxgraph.flowchart.start_2;whiteSpace=wrap;" vertex="1" parent="1">
          <mxGeometry x="415" y="300" width="20" height="20" as="geometry" />
        </mxCell>
        <mxCell id="RJCtjfo26XfE6H9p0rbl-31" style="edgeStyle=orthogonalEdgeStyle;rounded=0;orthogonalLoop=1;jettySize=auto;html=1;entryX=0.5;entryY=0;entryDx=0;entryDy=0;entryPerimeter=0;" edge="1" parent="1" source="RJCtjfo26XfE6H9p0rbl-7" target="RJCtjfo26XfE6H9p0rbl-29">
          <mxGeometry relative="1" as="geometry" />
        </mxCell>
        <mxCell id="RJCtjfo26XfE6H9p0rbl-34" style="edgeStyle=orthogonalEdgeStyle;rounded=0;orthogonalLoop=1;jettySize=auto;html=1;entryX=0.5;entryY=1;entryDx=0;entryDy=0;entryPerimeter=0;" edge="1" parent="1" source="RJCtjfo26XfE6H9p0rbl-9" target="RJCtjfo26XfE6H9p0rbl-29">
          <mxGeometry relative="1" as="geometry" />
        </mxCell>
        <mxCell id="RJCtjfo26XfE6H9p0rbl-37" style="edgeStyle=orthogonalEdgeStyle;rounded=0;orthogonalLoop=1;jettySize=auto;html=1;entryX=1;entryY=0.5;entryDx=0;entryDy=0;" edge="1" parent="1" source="RJCtjfo26XfE6H9p0rbl-36" target="RJCtjfo26XfE6H9p0rbl-9">
          <mxGeometry relative="1" as="geometry" />
        </mxCell>
        <mxCell id="RJCtjfo26XfE6H9p0rbl-36" value="i--" style="rounded=1;whiteSpace=wrap;html=1;absoluteArcSize=1;arcSize=14;strokeWidth=2;" vertex="1" parent="1">
          <mxGeometry x="551.5" y="560" width="199" height="40" as="geometry" />
        </mxCell>
      </root>
    </mxGraphModel>
  </diagram>
</mxfile>
